<svg width="100" height="100" viewBox="0 0 100 100" fill="none" xmlns="http://www.w3.org/2000/svg">
<g clip-path="url(#clip0_256_19)">
<path d="M26.3561 53.26H37.3177V98.3871C37.3177 99.2781 38.0396 100 38.9306 100H57.5164C58.4074 100 59.1293 99.2781 59.1293 98.3871V53.4726H71.7306C72.5499 53.4726 73.2393 52.8577 73.3328 52.0439L75.2467 35.4303C75.2993 34.9732 75.1545 34.5155 74.8486 34.1726C74.5425 33.8294 74.1045 33.6329 73.6448 33.6329H59.1299V23.2187C59.1299 20.0794 60.8203 18.4874 64.1545 18.4874C64.6296 18.4874 73.6448 18.4874 73.6448 18.4874C74.5357 18.4874 75.2577 17.7652 75.2577 16.8745V1.62484C75.2577 0.733871 74.5357 0.0119355 73.6448 0.0119355H60.5657C60.4735 0.00741935 60.2686 0 59.9667 0C57.6974 0 49.8093 0.445483 43.5783 6.17774C36.6745 12.53 37.6341 20.1358 37.8635 21.4545V33.6326H26.3561C25.4651 33.6326 24.7432 34.3545 24.7432 35.2455V51.6468C24.7432 52.5377 25.4651 53.26 26.3561 53.26Z" fill="#EAEAEA"/>
</g>
<defs>
<clipPath id="clip0_256_19">
<rect width="100" height="100" fill="white"/>
</clipPath>
</defs>
</svg>
