<svg width="100" height="100" viewBox="0 0 100 100" fill="none" xmlns="http://www.w3.org/2000/svg">
<path d="M50 32.8125C46.6006 32.8125 43.2776 33.8205 40.4511 35.7091C37.6247 37.5977 35.4217 40.282 34.1208 43.4226C32.8199 46.5632 32.4796 50.0191 33.1428 53.3531C33.8059 56.6872 35.4429 59.7497 37.8466 62.1534C40.2503 64.5571 43.3128 66.1941 46.6469 66.8573C49.9809 67.5204 53.4368 67.1801 56.5774 65.8792C59.718 64.5783 62.4023 62.3753 64.2909 59.5489C66.1795 56.7224 67.1875 53.3994 67.1875 50C67.1824 45.4432 65.3699 41.0745 62.1477 37.8523C58.9255 34.6301 54.5568 32.8176 50 32.8125ZM50 64.0625C47.2187 64.0625 44.4999 63.2378 42.1873 61.6925C39.8747 60.1473 38.0723 57.9511 37.0079 55.3815C35.9436 52.8119 35.6651 49.9844 36.2077 47.2565C36.7503 44.5287 38.0896 42.023 40.0563 40.0563C42.023 38.0896 44.5287 36.7503 47.2565 36.2077C49.9844 35.6651 52.8119 35.9436 55.3815 37.0079C57.9511 38.0723 60.1473 39.8747 61.6925 42.1873C63.2378 44.4999 64.0625 47.2187 64.0625 50C64.0583 53.7283 62.5754 57.3027 59.939 59.939C57.3027 62.5754 53.7283 64.0583 50 64.0625ZM67.1875 12.5H32.8125C27.4272 12.5061 22.2641 14.6481 18.4561 18.4561C14.6481 22.2641 12.5061 27.4272 12.5 32.8125V67.1875C12.5061 72.5728 14.6481 77.7359 18.4561 81.5439C22.2641 85.3519 27.4272 87.4939 32.8125 87.5H67.1875C72.5728 87.4939 77.7359 85.3519 81.5439 81.5439C85.3519 77.7359 87.4939 72.5728 87.5 67.1875V32.8125C87.4939 27.4272 85.3519 22.2641 81.5439 18.4561C77.7359 14.6481 72.5728 12.5061 67.1875 12.5ZM84.375 67.1875C84.3699 71.7443 82.5574 76.113 79.3352 79.3352C76.113 82.5574 71.7443 84.3699 67.1875 84.375H32.8125C28.2557 84.3699 23.887 82.5574 20.6648 79.3352C17.4426 76.113 15.6301 71.7443 15.625 67.1875V32.8125C15.6301 28.2557 17.4426 23.887 20.6648 20.6648C23.887 17.4426 28.2557 15.6301 32.8125 15.625H67.1875C71.7443 15.6301 76.113 17.4426 79.3352 20.6648C82.5574 23.887 84.3699 28.2557 84.375 32.8125V67.1875ZM73.4375 29.6875C73.4375 30.3056 73.2542 30.9098 72.9108 31.4237C72.5675 31.9376 72.0794 32.3381 71.5084 32.5746C70.9374 32.8111 70.309 32.873 69.7028 32.7525C69.0966 32.6319 68.5398 32.3342 68.1028 31.8972C67.6657 31.4602 67.3681 30.9033 67.2475 30.2972C67.127 29.691 67.1889 29.0626 67.4254 28.4916C67.6619 27.9206 68.0624 27.4325 68.5763 27.0892C69.0902 26.7458 69.6944 26.5625 70.3125 26.5625C71.141 26.5634 71.9353 26.893 72.5212 27.4788C73.107 28.0647 73.4366 28.859 73.4375 29.6875Z" fill="#EAEAEA"/>
</svg>
