<svg width="100" height="100" viewBox="0 0 100 100" fill="none" xmlns="http://www.w3.org/2000/svg">
<g clip-path="url(#clip0_256_22)">
<path d="M50 0C22.4288 0 0 22.4288 0 50C0 59.4058 2.61346 68.5365 7.57115 76.4654C5.59615 83.3846 2.02885 96.4731 1.99038 96.6096C1.80577 97.2865 2.00385 98.0096 2.50962 98.4961C3.01538 98.9827 3.74615 99.1558 4.41154 98.9519L24.2308 92.8558C31.9942 97.5327 40.8846 100 50 100C77.5712 100 100 77.5712 100 50C100 22.4288 77.5712 0 50 0ZM50 96.1538C41.3096 96.1538 32.8442 93.725 25.5173 89.1327C25.2077 88.9385 24.8519 88.8404 24.4962 88.8404C24.3058 88.8404 24.1154 88.8692 23.9308 88.925L6.625 94.2519C7.89615 89.6115 10.1808 81.3115 11.5058 76.6942C11.6596 76.1596 11.5731 75.5827 11.2712 75.1154C6.41346 67.6404 3.84615 58.9558 3.84615 50C3.84615 24.5519 24.5519 3.84615 50 3.84615C75.4481 3.84615 96.1538 24.5519 96.1538 50C96.1538 75.4481 75.4481 96.1538 50 96.1538Z" fill="#EAEAEA"/>
<path d="M82.6631 61.7809C79.1131 59.8097 76.09 57.8328 73.8842 56.3905C72.1996 55.2905 70.9823 54.4962 70.09 54.0482C67.5957 52.8039 65.7054 53.6828 64.9861 54.4097C64.8957 54.5001 64.815 54.5982 64.7457 54.702C62.1554 58.5885 58.7727 62.3059 57.7823 62.5058C56.6381 62.327 51.2823 59.2828 45.9592 54.8501C40.5246 50.3212 37.1054 45.9847 36.6034 43.0309C40.09 39.4424 41.3457 37.1847 41.3457 34.6155C41.3457 31.9674 35.1688 20.9116 34.0515 19.7943C32.9304 18.6751 30.4054 18.5001 26.5458 19.2693C26.1746 19.3443 25.8323 19.527 25.5631 19.7943C25.0958 20.2616 14.1611 31.4097 19.3573 44.9212C25.0611 59.7501 39.7015 76.9866 58.3669 79.7866C60.4881 80.1039 62.4765 80.2616 64.3381 80.2616C75.3188 80.2616 81.7996 74.7366 83.6246 63.777C83.7611 62.9751 83.3746 62.1751 82.6631 61.7809ZM58.9381 75.9828C39.1996 73.0232 26.7669 53.4674 22.9477 43.5405C19.1592 33.6943 26.1458 24.9155 27.8996 22.9309C29.3265 22.6885 30.8284 22.5866 31.4554 22.6847C32.765 24.5059 37.2996 33.0732 37.4996 34.6155C37.4996 35.6251 37.1707 37.0308 33.2554 40.9482C32.8938 41.3078 32.6919 41.7962 32.6919 42.3078C32.6919 52.377 53.9304 66.3462 57.6919 66.3462C60.9631 66.3462 65.2284 60.8482 67.6573 57.2655C67.7977 57.2712 68.0342 57.3193 68.3708 57.4885C69.0631 57.8366 70.2631 58.6193 71.7804 59.6116C73.7842 60.9212 76.4457 62.6597 79.5881 64.4616C78.1611 71.327 74.1727 78.2712 58.9381 75.9828Z" fill="#EAEAEA"/>
</g>
<defs>
<clipPath id="clip0_256_22">
<rect width="100" height="100" fill="white"/>
</clipPath>
</defs>
</svg>
